{
    "asset": {
        "version": "2.0",
        "generator": "Open Asset Import Library (assimp v5.2.cf7d3637)"
    },
    "extensionsUsed": [
        "KHR_materials_volume",
        "FB_ngon_encoding"
    ],
    "accessors": [
        {
            "bufferView": 0,
            "byteOffset": 0,
            "componentType": 5126,
            "count": 624,
            "type": "VEC3",
            "max": [
                2.3781628608703615,
                0.7273030281066895,
                3.3374974727630617
            ],
            "min": [
                1.0681588649749756,
                -0.6937789916992188,
                2.34145450592041
            ]
        },
        {
            "bufferView": 1,
            "byteOffset": 0,
            "componentType": 5126,
            "count": 624,
            "type": "VEC3",
            "max": [
                0.9645234942436218,
                0.8944271802902222,
                1.0
            ],
            "min": [
                -0.8944271802902222,
                -0.8944271802902222,
                -0.7060002684593201
            ]
        },
        {
            "bufferView": 2,
            "byteOffset": 0,
            "componentType": 5126,
            "count": 624,
            "type": "VEC2",
            "max": [
                0.9882065653800964,
                0.996563732624054
            ],
            "min": [
                0.004034186247736216,
                0.009523510932922364
            ]
        },
        {
            "bufferView": 3,
            "byteOffset": 0,
            "componentType": 5125,
            "count": 624,
            "type": "SCALAR",
            "max": [
                623
            ],
            "min": [
                0
            ]
        },
        {
            "bufferView": 4,
            "byteOffset": 0,
            "componentType": 5126,
            "count": 468,
            "type": "VEC3",
            "max": [
                0.9535518884658814,
                0.7685016989707947,
                4.907961845397949
            ],
            "min": [
                -0.7493517994880676,
                -0.7233437895774841,
                0.1413610428571701
            ]
        },
        {
            "bufferView": 5,
            "byteOffset": 0,
            "componentType": 5126,
            "count": 468,
            "type": "VEC3",
            "max": [
                0.5773502588272095,
                0.5773502588272095,
                0.5773502588272095
            ],
            "min": [
                -0.5773502588272095,
                -0.5773502588272095,
                -0.5773502588272095
            ]
        },
        {
            "bufferView": 6,
            "byteOffset": 0,
            "componentType": 5126,
            "count": 468,
            "type": "VEC2",
            "max": [
                0.8436091542243958,
                0.9938682913780212
            ],
            "min": [
                0.01056188065558672,
                0.02347719669342041
            ]
        },
        {
            "bufferView": 7,
            "byteOffset": 0,
            "componentType": 5125,
            "count": 468,
            "type": "SCALAR",
            "max": [
                467
            ],
            "min": [
                0
            ]
        },
        {
            "bufferView": 8,
            "byteOffset": 0,
            "componentType": 5126,
            "count": 2016,
            "type": "VEC3",
            "max": [
                2.0402982234954836,
                0.8827229142189026,
                5.154387950897217
            ],
            "min": [
                -1.0,
                -0.841716468334198,
                0.0025676151271909477
            ]
        },
        {
            "bufferView": 9,
            "byteOffset": 0,
            "componentType": 5126,
            "count": 2016,
            "type": "VEC3",
            "max": [
                0.8715428113937378,
                1.0,
                0.7071068286895752
            ],
            "min": [
                -0.7071068286895752,
                -1.0,
                -0.8944271802902222
            ]
        },
        {
            "bufferView": 10,
            "byteOffset": 0,
            "componentType": 5126,
            "count": 2016,
            "type": "VEC2",
            "max": [
                0.9800183773040772,
                0.9917078018188477
            ],
            "min": [
                0.002872534329071641,
                0.007281959056854248
            ]
        },
        {
            "bufferView": 11,
            "byteOffset": 0,
            "componentType": 5125,
            "count": 2016,
            "type": "SCALAR",
            "max": [
                2015
            ],
            "min": [
                0
            ]
        }
    ],
    "buffers": [
        {
            "byteLength": 111888,
            "uri": "server_v2_console.bin"
        }
    ],
    "bufferViews": [
        {
            "buffer": 0,
            "byteOffset": 0,
            "byteLength": 7488,
            "target": 34962
        },
        {
            "buffer": 0,
            "byteOffset": 7488,
            "byteLength": 7488,
            "target": 34962
        },
        {
            "buffer": 0,
            "byteOffset": 14976,
            "byteLength": 4992,
            "target": 34962
        },
        {
            "buffer": 0,
            "byteOffset": 19968,
            "byteLength": 2496,
            "target": 34963
        },
        {
            "buffer": 0,
            "byteOffset": 22464,
            "byteLength": 5616,
            "target": 34962
        },
        {
            "buffer": 0,
            "byteOffset": 28080,
            "byteLength": 5616,
            "target": 34962
        },
        {
            "buffer": 0,
            "byteOffset": 33696,
            "byteLength": 3744,
            "target": 34962
        },
        {
            "buffer": 0,
            "byteOffset": 37440,
            "byteLength": 1872,
            "target": 34963
        },
        {
            "buffer": 0,
            "byteOffset": 39312,
            "byteLength": 24192,
            "target": 34962
        },
        {
            "buffer": 0,
            "byteOffset": 63504,
            "byteLength": 24192,
            "target": 34962
        },
        {
            "buffer": 0,
            "byteOffset": 87696,
            "byteLength": 16128,
            "target": 34962
        },
        {
            "buffer": 0,
            "byteOffset": 103824,
            "byteLength": 8064,
            "target": 34963
        }
    ],
    "images": [
        {
            "uri": "data:image/png;base64,"
        },
        {
            "uri": "data:image/png;base64,"
        },
        {
            "uri": "data:image/png;base64,"
        }
    ],
    "materials": [
        {
            "name": "console_auv",
            "pbrMetallicRoughness": {
                "baseColorTexture": {
                    "index": 0
                },
                "metallicFactor": 0.0,
                "roughnessFactor": 0.6000000238418579
            },
            "doubleSided": true
        },
        {
            "name": "Cube12_auv",
            "pbrMetallicRoughness": {
                "baseColorTexture": {
                    "index": 1
                },
                "metallicFactor": 0.0,
                "roughnessFactor": 0.6000000238418579
            },
            "doubleSided": true
        },
        {
            "name": "Cube1_auv",
            "pbrMetallicRoughness": {
                "baseColorTexture": {
                    "index": 2
                },
                "metallicFactor": 0.0,
                "roughnessFactor": 0.6000000238418579
            },
            "doubleSided": true
        },
        {
            "name": "material"
        }
    ],
    "meshes": [
        {
            "name": "Object_0",
            "primitives": [
                {
                    "mode": 4,
                    "material": 0,
                    "indices": 3,
                    "attributes": {
                        "POSITION": 0,
                        "NORMAL": 1,
                        "TEXCOORD_0": 2
                    }
                }
            ]
        },
        {
            "name": "Object_1",
            "primitives": [
                {
                    "mode": 4,
                    "material": 1,
                    "indices": 7,
                    "attributes": {
                        "POSITION": 4,
                        "NORMAL": 5,
                        "TEXCOORD_0": 6
                    }
                }
            ]
        },
        {
            "name": "Object_2",
            "primitives": [
                {
                    "mode": 4,
                    "material": 2,
                    "indices": 11,
                    "attributes": {
                        "POSITION": 8,
                        "NORMAL": 9,
                        "TEXCOORD_0": 10
                    }
                }
            ]
        }
    ],
    "nodes": [
        {
            "name": "Sketchfab_model",
            "matrix": [
                1.0,
                0.0,
                0.0,
                0.0,
                0.0,
                2.220446049250313e-16,
                -1.0,
                0.0,
                0.0,
                1.0,
                2.220446049250313e-16,
                0.0,
                0.0,
                0.0,
                0.0,
                1.0
            ],
            "children": [
                1
            ]
        },
        {
            "name": "ServerV2+console.obj.cleaner.materialmerger.gles",
            "children": [
                2,
                3,
                4
            ]
        },
        {
            "name": "Object_2",
            "mesh": 0
        },
        {
            "name": "Object_3",
            "mesh": 1
        },
        {
            "name": "Object_4",
            "mesh": 2
        }
    ],
    "samplers": [
        {
            "magFilter": 9729,
            "minFilter": 9987
        }
    ],
    "scenes": [
        {
            "nodes": [
                0
            ]
        }
    ],
    "textures": [
        {
            "source": 0,
            "sampler": 0
        },
        {
            "source": 1,
            "sampler": 0
        },
        {
            "source": 2,
            "sampler": 0
        }
    ],
    "scene": 0
}